<?xml version="1.0" encoding="UTF-8"?>
<svg id="a" data-name="레이어 1" xmlns="http://www.w3.org/2000/svg" width="24" height="24" viewBox="0 0 24 24">
  <rect x="2.3" y="2.5" width="19.5" height="15" rx="1.1" ry="1.1" fill="none" stroke="#000" stroke-linecap="square" stroke-miterlimit="10" stroke-width="2.1"/>
  <line x1="8.7" y1="18.2" x2="8.7" y2="20.7" fill="none" stroke="#000" stroke-linecap="round" stroke-miterlimit="10" stroke-width="1.9"/>
  <line x1="15.3" y1="18.2" x2="15.3" y2="20.7" fill="none" stroke="#000" stroke-linecap="round" stroke-miterlimit="10" stroke-width="1.9"/>
  <line x1="5" y1="21.4" x2="19" y2="21.4" fill="none" stroke="#000" stroke-linecap="round" stroke-miterlimit="10" stroke-width="1.9"/>
  <line x1="2.2" y1="14" x2="20.6" y2="14" fill="none" stroke="#000" stroke-miterlimit="10" stroke-width="1.9"/>
  <g>
    <path d="m13.1,9.7c0,.8-.3,1.4-.8,1.8-.5.4-1.3.6-2.2.6s-.8,0-1.2-.2c-.5-.1-.9-.3-1.2-.6-.2-.2-.3-.4-.4-.7,0-.2-.1-.5-.1-.8v-4.2h1.6v4.1c0,.4.1.7.4.9.2.2.6.3,1,.3s.9-.1,1.1-.3c.2-.2.3-.5.3-.9v-4.1h1.6v4.1Z"/>
    <path d="m16.7,11.9h-1.6v-6.3h1.6v6.3Z"/>
  </g>
</svg>