<?xml version="1.0" encoding="UTF-8"?>
<svg id="a" data-name="레이어 1" xmlns="http://www.w3.org/2000/svg" width="24" height="24" viewBox="0 0 24 24">
  <rect x="4.8" y="4.5" width="15" height="15" rx="1" ry="1" fill="none" stroke="#000" stroke-linecap="square" stroke-miterlimit="10" stroke-width="1.9"/>
  <line x1="7" y1="1.3" x2="7" y2="3.8" fill="none" stroke="#000" stroke-linecap="round" stroke-miterlimit="10" stroke-width="1.9"/>
  <line x1="10.7" y1="1.3" x2="10.7" y2="3.8" fill="none" stroke="#000" stroke-linecap="round" stroke-miterlimit="10" stroke-width="1.9"/>
  <line x1="18" y1="1.3" x2="18" y2="3.8" fill="none" stroke="#000" stroke-linecap="round" stroke-miterlimit="10" stroke-width="1.9"/>
  <line x1="14.3" y1="1.3" x2="14.3" y2="3.8" fill="none" stroke="#000" stroke-linecap="round" stroke-miterlimit="10" stroke-width="1.9"/>
  <line x1="7" y1="20.2" x2="7" y2="22.7" fill="none" stroke="#000" stroke-linecap="round" stroke-miterlimit="10" stroke-width="1.9"/>
  <line x1="10.7" y1="20.2" x2="10.7" y2="22.7" fill="none" stroke="#000" stroke-linecap="round" stroke-miterlimit="10" stroke-width="1.9"/>
  <line x1="18" y1="20.2" x2="18" y2="22.7" fill="none" stroke="#000" stroke-linecap="round" stroke-miterlimit="10" stroke-width="1.9"/>
  <line x1="14.3" y1="20.2" x2="14.3" y2="22.7" fill="none" stroke="#000" stroke-linecap="round" stroke-miterlimit="10" stroke-width="1.9"/>
  <line x1="1.2" y1="17.5" x2="3.7" y2="17.5" fill="none" stroke="#000" stroke-linecap="round" stroke-miterlimit="10" stroke-width="1.9"/>
  <line x1="1.2" y1="13.8" x2="3.7" y2="13.8" fill="none" stroke="#000" stroke-linecap="round" stroke-miterlimit="10" stroke-width="1.9"/>
  <line x1="1.2" y1="6.5" x2="3.7" y2="6.5" fill="none" stroke="#000" stroke-linecap="round" stroke-miterlimit="10" stroke-width="1.9"/>
  <line x1="1.2" y1="10.2" x2="3.7" y2="10.2" fill="none" stroke="#000" stroke-linecap="round" stroke-miterlimit="10" stroke-width="1.9"/>
  <line x1="20.3" y1="17.6" x2="22.8" y2="17.6" fill="none" stroke="#000" stroke-linecap="round" stroke-miterlimit="10" stroke-width="1.9"/>
  <line x1="20.3" y1="14" x2="22.8" y2="14" fill="none" stroke="#000" stroke-linecap="round" stroke-miterlimit="10" stroke-width="1.9"/>
  <line x1="20.3" y1="6.7" x2="22.8" y2="6.7" fill="none" stroke="#000" stroke-linecap="round" stroke-miterlimit="10" stroke-width="1.9"/>
  <line x1="20.3" y1="10.3" x2="22.8" y2="10.3" fill="none" stroke="#000" stroke-linecap="round" stroke-miterlimit="10" stroke-width="1.9"/>
  <g>
    <path d="m8.2,14.9h-1.6l2.7-6.3h1.8l2.6,6.3h-1.7l-.5-1.3h-2.8l-.5,1.3Zm1-2.4h1.9l-.9-2.5h0l-1,2.5Z"/>
    <path d="m16.7,14.9h-1.6v-6.3h1.6v6.3Z"/>
  </g>
</svg>