<?xml version="1.0" encoding="UTF-8"?>
<svg id="a" data-name="레이어 1" xmlns="http://www.w3.org/2000/svg" width="32" height="32" viewBox="0 0 32 32">
  <rect x="-35.8" y="-7.5" width="100.9" height="46.9" fill="#163E64"/>
  <path d="m4,4.4c-.4.5-.6,1-.6,1.7s.3,1.4.9,1.9c.4.3,1,.5,1.8.6h.3c.7.1,1.3.2,1.6.3.6.1,1.1.3,1.4.6.4.3.8.7,1,1.1.3.5.4,1.2.4,2,0,1.2-.4,2.2-1.3,3-.9.7-2,1.1-3.5,1.1s-.5,0-.8,0c-.4,0-.7-.2-1-.3h0c-.4-.2-.7-.3-.8-.3-.2,0-.3,0-.3.3,0,.2-.2.3-.4.4-.2,0-.4,0-.7,0-.3,0-.5-.1-.6-.3-.2-.2-.2-.3-.2-.5.1-.4.2-1,.2-1.6,0-.6-.1-1.2-.3-1.7,0-.3,0-.5.2-.7.2-.2.4-.2.7-.2.3,0,.6,0,.8.2.2.2.3.4.3.6-.1.9.2,1.6.8,2.1.5.4,1.2.5,2.1.5s1.5-.2,2-.6c.5-.5.8-1.1.8-1.9s-.2-1.2-.6-1.5c-.4-.3-1.1-.6-2.1-.7-1.3-.2-2.3-.4-3-.8-1.2-.7-1.7-1.8-1.7-3.3s.4-2.2,1.2-2.9c.8-.7,2-1.1,3.4-1.1s.7,0,1.2.1c.5.1.9.2,1.1.3.3.2.5.2.6.2,0,0,.1,0,.1-.2h0c0-.3.2-.4.4-.4.2,0,.5,0,.8,0,.3,0,.5.2.7.3.2.2.2.4,0,.6-.2.4-.4.9-.4,1.6,0,.6,0,1.2,0,1.7,0,.3,0,.5-.2.6-.2.1-.4.2-.7.2s-.6,0-.8-.2c-.2-.2-.3-.4-.3-.6,0-.9-.1-1.6-.7-2-.5-.4-1.1-.6-1.8-.6s-1.5.3-2,.8Z" fill="#fff"/>
  <path d="m8.7,15.7c-.2-.2-.3-.4-.3-.7s0-.5.3-.7c.3-.2.6-.3,1-.2,1.4,0,2.9,0,4.7.1,2,0,4.1,0,6.1-.1,3.5,0,6.2.7,8.1,2.1,1.8,1.4,2.8,3.4,2.8,6s-.9,4.6-2.8,6c-1.9,1.4-4.6,2.2-8.1,2.2-2,0-4.1-.1-6.1-.1-1.8,0-3.4,0-4.7.1-.4,0-.7,0-1-.3-.2-.2-.3-.4-.3-.7s0-.5.3-.7c.3-.2.6-.3,1-.2.5,0,.8,0,1.1,0,.4,0,.5-.2.5-.4v-11.5c0-.3-.2-.4-.5-.5-.3,0-.6,0-1.1,0-.4,0-.7,0-1-.3Zm7,12.8h4.4c1.8,0,3.2-.5,4.5-1.4,1.5-1.1,2.2-2.7,2.2-4.9s-.7-3.8-2.2-4.9c-1.2-.9-2.7-1.3-4.5-1.3h-4.4v12.5Z" fill="#FFC107"/>
</svg>