<svg xmlns="http://www.w3.org/2000/svg" viewBox="0 0 24 24" width="24" height="24"><path d="M 15.65 5.05 L 15.10 5.45 L 14.60 6.75 L 13.20 6.10 L 11.35 7.60 L 11.05 8.60 L 11.65 9.60 L 10.10 10.50 L 10.00 13.05 L 10.40 13.80 L 11.60 14.20 L 11.10 15.85 L 12.55 17.55 L 13.60 17.85 L 14.60 17.25 L 15.50 18.85 L 18.20 18.90 L 18.75 18.50 L 19.30 17.25 L 20.35 17.90 L 20.85 17.85 L 22.75 16.00 L 22.85 15.35 L 22.15 14.45 L 22.60 13.95 L 23.95 13.75 L 23.95 10.20 L 22.20 9.70 L 22.85 8.20 L 21.05 6.20 L 20.30 6.05 L 19.40 6.70 L 18.25 5.05 Z M 16.65 9.30 L 17.50 9.40 L 18.70 10.05 L 19.15 10.65 L 19.60 11.95 L 19.50 12.45 L 18.90 13.70 L 18.50 14.05 L 17.20 14.65 L 16.50 14.60 L 15.30 14.00 L 14.80 13.45 L 14.20 12.10 L 14.30 11.45 L 14.90 10.35 L 15.60 9.75 Z M 6.65 0.00 L 6.35 6.05 L 5.45 6.65 L 0.00 6.65 L 0.00 23.95 L 17.45 23.95 L 17.40 20.80 L 11.80 18.85 L 9.80 16.70 L 8.40 13.15 L 8.45 10.55 L 10.05 6.85 L 12.45 4.75 L 17.25 3.30 L 17.70 2.30 L 17.45 0.00 Z M 1.75 19.80 L 1.85 19.50 L 2.05 19.30 L 2.80 19.10 L 6.35 19.15 L 6.75 19.45 L 6.85 19.95 L 6.65 20.50 L 6.30 20.75 L 2.55 20.80 L 2.20 20.65 L 1.90 20.35 Z M 1.70 17.10 L 2.10 16.60 L 2.55 16.35 L 6.25 16.40 L 6.40 16.45 L 6.75 16.80 L 6.90 17.40 L 6.75 17.70 L 6.40 17.90 L 2.60 17.95 L 1.95 17.75 L 1.70 17.50 Z M 1.55 14.30 L 1.90 13.90 L 2.45 13.65 L 6.20 13.65 L 6.60 13.80 L 6.85 14.05 L 6.95 14.25 L 6.95 14.60 L 6.65 14.95 L 6.35 15.05 L 2.45 15.05 L 1.75 14.80 L 1.55 14.55 Z M 1.50 11.40 L 1.60 11.20 L 1.85 11.00 L 2.45 10.80 L 6.30 10.80 L 6.60 10.90 L 6.90 11.20 L 6.95 11.65 L 6.70 12.00 L 6.40 12.15 L 2.70 12.20 L 2.20 12.10 L 1.75 11.90 L 1.55 11.70 Z M 6.95 8.35 L 6.95 8.75 L 6.85 8.95 L 6.60 9.20 L 6.25 9.35 L 2.55 9.40 L 1.85 9.05 L 1.60 8.70 L 1.60 8.40 L 1.75 8.20 L 2.40 7.95 L 6.30 7.90 L 6.70 8.05 Z M 4.70 0.00 L 4.40 0.00 L 4.35 0.40 L 3.85 1.00 L 0.50 4.30 L 0.20 4.45 L 0.00 4.40 L 0.00 4.70 L 0.30 4.70 L 1.00 5.00 L 1.60 5.10 L 4.30 5.10 L 4.75 4.90 L 5.10 4.30 L 5.10 1.55 L 5.00 1.00 L 4.70 0.30 Z" fill="rgb(22, 62, 100)" fill-rule="evenodd"/></svg>